<svg version="1.2" xmlns="http://www.w3.org/2000/svg" viewBox="0 0 74 74" width="74" height="74"><style>.a{fill:none;stroke:#262626;stroke-width:5}.b{fill:none;stroke:#262626;stroke-width:3}.c{fill:#262626}.d{fill:#fff}.e{fill:#ffc857}.f{opacity:.92;fill:#262626}</style><path fill-rule="evenodd" class="a" d="m37 71c-18.8 0-34-15.2-34-34 0-18.8 15.2-34 34-34 18.8 0 34 15.2 34 34 0 18.8-15.2 34-34 34z"/><path fill-rule="evenodd" class="b" d="m37 59c-12.2 0-22-9.8-22-22 0-12.2 9.8-22 22-22 12.2 0 22 9.8 22 22 0 12.2-9.8 22-22 22z"/><path fill-rule="evenodd" class="c" d="m37 51c-7.7 0-14-6.3-14-14 0-7.7 6.3-14 14-14 7.7 0 14 6.3 14 14 0 7.7-6.3 14-14 14z"/><path fill-rule="evenodd" class="d" d="m41.5 35.7c-1.2 0-2.2-1-2.2-2.2 0-1.2 1-2.2 2.2-2.2 1.2 0 2.2 1 2.2 2.2 0 1.2-1 2.2-2.2 2.2z"/><path fill-rule="evenodd" class="e" d="m51 37l12-5-12-5z"/><path class="f" d="m23 49q14-6 28 0-14 8-28 0z"/></svg>